<mxfile>
    <diagram id="kihiGIJnRiyjc5Cwydjj" name="Page-1">
        <mxGraphModel dx="1201" dy="814" grid="0" gridSize="10" guides="1" tooltips="1" connect="1" arrows="1" fold="1" page="1" pageScale="1" pageWidth="1169" pageHeight="827" background="#ffffff" math="0" shadow="0">
            <root>
                <mxCell id="0"/>
                <mxCell id="1" parent="0"/>
                <mxCell id="7" value="" style="strokeWidth=1;shadow=0;dashed=0;align=center;html=1;shape=mxgraph.mockup.containers.browserWindow;rSize=0;strokeColor=#666666;strokeColor2=#008cff;strokeColor3=#c4c4c4;mainText=,;recursiveResize=0;fillColor=none;fontSize=18;fontColor=#FFB366;" vertex="1" parent="1">
                    <mxGeometry x="91" y="89" width="955" height="661" as="geometry"/>
                </mxCell>
                <mxCell id="8" value="Page 1" style="strokeWidth=1;shadow=0;dashed=0;align=center;html=1;shape=mxgraph.mockup.containers.anchor;fontSize=17;fontColor=#666666;align=left;" vertex="1" parent="7">
                    <mxGeometry x="60" y="12" width="110" height="26" as="geometry"/>
                </mxCell>
                <mxCell id="9" value="https://www.draw.io" style="strokeWidth=1;shadow=0;dashed=0;align=center;html=1;shape=mxgraph.mockup.containers.anchor;rSize=0;fontSize=17;fontColor=#666666;align=left;" vertex="1" parent="7">
                    <mxGeometry x="130" y="60" width="250" height="26" as="geometry"/>
                </mxCell>
                <mxCell id="10" value="" style="rounded=0;whiteSpace=wrap;html=1;strokeColor=#FFB366;strokeWidth=2;fontSize=18;fontColor=#FFB366;fillColor=#FAAF64;" vertex="1" parent="7">
                    <mxGeometry x="345" y="168" width="433" height="383" as="geometry"/>
                </mxCell>
                <mxCell id="11" value="" style="rounded=0;whiteSpace=wrap;html=1;strokeColor=#FFB366;strokeWidth=2;fontSize=18;fontColor=#FFB366;fillColor=#007FFF;" vertex="1" parent="7">
                    <mxGeometry x="467" y="243" width="242" height="220" as="geometry"/>
                </mxCell>
                <mxCell id="15" value="" style="endArrow=none;html=1;fontSize=18;fontColor=#FFB366;entryX=0;entryY=0;entryDx=0;entryDy=0;fillColor=#1ba1e2;strokeColor=#006EAF;strokeWidth=2;" edge="1" parent="7">
                    <mxGeometry width="50" height="50" relative="1" as="geometry">
                        <mxPoint x="1" y="245" as="sourcePoint"/>
                        <mxPoint x="467" y="245" as="targetPoint"/>
                    </mxGeometry>
                </mxCell>
                <mxCell id="17" value="" style="endArrow=none;html=1;strokeWidth=2;fontSize=18;fontColor=#FFB366;exitX=0.004;exitY=0.032;exitDx=0;exitDy=0;exitPerimeter=0;entryX=0.489;entryY=0;entryDx=0;entryDy=0;entryPerimeter=0;fillColor=#1ba1e2;strokeColor=#006EAF;" edge="1" parent="7">
                    <mxGeometry width="50" height="50" relative="1" as="geometry">
                        <mxPoint x="467.9680000000001" y="248.03999999999996" as="sourcePoint"/>
                        <mxPoint x="466.9949999999999" y="-2" as="targetPoint"/>
                    </mxGeometry>
                </mxCell>
                <mxCell id="21" value="" style="shape=flexArrow;endArrow=classic;html=1;strokeWidth=2;fontSize=18;fontColor=#FFB366;fillColor=#85001E;" edge="1" parent="7">
                    <mxGeometry width="50" height="50" relative="1" as="geometry">
                        <mxPoint x="116" y="224" as="sourcePoint"/>
                        <mxPoint x="151" y="192" as="targetPoint"/>
                    </mxGeometry>
                </mxCell>
                <mxCell id="22" value="" style="endArrow=none;html=1;strokeWidth=2;fontSize=18;fontColor=#FFB366;exitX=0.004;exitY=0.032;exitDx=0;exitDy=0;exitPerimeter=0;fillColor=#1ba1e2;strokeColor=#85001E;" edge="1" parent="7">
                    <mxGeometry width="50" height="50" relative="1" as="geometry">
                        <mxPoint x="148.47800000000007" y="193" as="sourcePoint"/>
                        <mxPoint x="148" y="113" as="targetPoint"/>
                    </mxGeometry>
                </mxCell>
                <mxCell id="24" value="event.clientY" style="edgeLabel;html=1;align=center;verticalAlign=middle;resizable=0;points=[];fontSize=18;labelBackgroundColor=none;fontColor=#85001E;rotation=90;" vertex="1" connectable="0" parent="22">
                    <mxGeometry x="0.5252" y="1" relative="1" as="geometry">
                        <mxPoint x="18.89" y="9.99" as="offset"/>
                    </mxGeometry>
                </mxCell>
                <mxCell id="23" value="" style="endArrow=none;html=1;fontSize=18;fontColor=#FFB366;fillColor=#a20025;strokeColor=#6F0000;strokeWidth=2;" edge="1" parent="7">
                    <mxGeometry width="50" height="50" relative="1" as="geometry">
                        <mxPoint y="190" as="sourcePoint"/>
                        <mxPoint x="148" y="190" as="targetPoint"/>
                    </mxGeometry>
                </mxCell>
                <mxCell id="25" value="event.clientX" style="edgeLabel;html=1;align=center;verticalAlign=middle;resizable=0;points=[];fontSize=18;fontColor=#85001E;labelBackgroundColor=none;" vertex="1" connectable="0" parent="23">
                    <mxGeometry x="-0.4188" y="2" relative="1" as="geometry">
                        <mxPoint x="18" y="13" as="offset"/>
                    </mxGeometry>
                </mxCell>
                <mxCell id="26" value="" style="endArrow=classic;startArrow=classic;html=1;strokeColor=#2D7600;strokeWidth=2;fillColor=#60a917;fontSize=18;fontColor=#85001E;" edge="1" parent="7">
                    <mxGeometry width="50" height="50" relative="1" as="geometry">
                        <mxPoint x="239" y="249" as="sourcePoint"/>
                        <mxPoint x="239" y="166" as="targetPoint"/>
                    </mxGeometry>
                </mxCell>
                <mxCell id="27" value="div.scrollTop" style="edgeLabel;html=1;align=center;verticalAlign=middle;resizable=0;points=[];fontSize=18;labelBackgroundColor=none;fontColor=#2D7600;" vertex="1" connectable="0" parent="26">
                    <mxGeometry x="0.2771" y="1" relative="1" as="geometry">
                        <mxPoint as="offset"/>
                    </mxGeometry>
                </mxCell>
                <mxCell id="28" value="" style="endArrow=classic;startArrow=classic;html=1;strokeColor=#2D7600;strokeWidth=2;fillColor=#60a917;fontSize=18;fontColor=#85001E;" edge="1" parent="7">
                    <mxGeometry width="50" height="50" relative="1" as="geometry">
                        <mxPoint x="468" y="127" as="sourcePoint"/>
                        <mxPoint x="345" y="127" as="targetPoint"/>
                    </mxGeometry>
                </mxCell>
                <mxCell id="29" value="div.scrollLeft" style="edgeLabel;html=1;align=center;verticalAlign=middle;resizable=0;points=[];fontSize=18;labelBackgroundColor=none;fontColor=#2D7600;" vertex="1" connectable="0" parent="28">
                    <mxGeometry x="0.2771" y="1" relative="1" as="geometry">
                        <mxPoint x="19" y="10" as="offset"/>
                    </mxGeometry>
                </mxCell>
                <mxCell id="30" value="" style="endArrow=classic;startArrow=classic;html=1;strokeColor=#001DBC;strokeWidth=2;fillColor=#0050ef;fontSize=18;fontColor=#2D7600;entryX=0.616;entryY=0.007;entryDx=0;entryDy=0;entryPerimeter=0;labelBackgroundColor=none;" edge="1" parent="7">
                    <mxGeometry width="50" height="50" relative="1" as="geometry">
                        <mxPoint x="559.088299208174" y="243" as="sourcePoint"/>
                        <mxPoint x="559.28" y="4.1860000000000355" as="targetPoint"/>
                    </mxGeometry>
                </mxCell>
                <mxCell id="31" value="div.offsetTop" style="edgeLabel;html=1;align=center;verticalAlign=middle;resizable=0;points=[];fontSize=18;labelBackgroundColor=none;fontColor=#001DBC;rotation=90;" vertex="1" connectable="0" parent="30">
                    <mxGeometry x="-0.1374" relative="1" as="geometry">
                        <mxPoint x="18.83" y="-29" as="offset"/>
                    </mxGeometry>
                </mxCell>
                <mxCell id="32" value="" style="endArrow=classic;startArrow=classic;html=1;strokeColor=#001DBC;strokeWidth=2;fillColor=#0050ef;fontSize=18;fontColor=#2D7600;labelBackgroundColor=none;exitX=0;exitY=0.5;exitDx=0;exitDy=0;entryX=-0.004;entryY=0.499;entryDx=0;entryDy=0;entryPerimeter=0;" edge="1" parent="7" target="7">
                    <mxGeometry width="50" height="50" relative="1" as="geometry">
                        <mxPoint x="467.95" y="328.97" as="sourcePoint"/>
                        <mxPoint y="335" as="targetPoint"/>
                    </mxGeometry>
                </mxCell>
                <mxCell id="33" value="div.offsetLeft" style="edgeLabel;html=1;align=center;verticalAlign=middle;resizable=0;points=[];fontSize=18;labelBackgroundColor=none;fontColor=#001DBC;rotation=0;" vertex="1" connectable="0" parent="32">
                    <mxGeometry x="-0.1374" relative="1" as="geometry">
                        <mxPoint x="-46.95" y="-16.939999999999998" as="offset"/>
                    </mxGeometry>
                </mxCell>
                <mxCell id="37" value="" style="verticalLabelPosition=bottom;shadow=0;dashed=0;align=center;html=1;verticalAlign=top;strokeWidth=1;shape=mxgraph.mockup.navigation.scrollBar;strokeColor=#999999;barPos=20;fillColor2=#99ddff;strokeColor2=none;labelBackgroundColor=none;fontSize=18;fontColor=#001DBC;fillColor=none;" vertex="1" parent="7">
                    <mxGeometry x="468" y="463" width="240" height="20" as="geometry"/>
                </mxCell>
                <mxCell id="39" value="" style="verticalLabelPosition=bottom;shadow=0;dashed=0;align=center;html=1;verticalAlign=top;strokeWidth=1;shape=mxgraph.mockup.navigation.scrollBar;strokeColor=#999999;barPos=20;fillColor2=#99ddff;strokeColor2=none;direction=north;labelBackgroundColor=none;fillColor=none;fontSize=18;fontColor=#001DBC;" vertex="1" parent="7">
                    <mxGeometry x="709" y="244" width="20" height="219" as="geometry"/>
                </mxCell>
                <mxCell id="45" value="" style="endArrow=none;html=1;strokeWidth=2;fontSize=18;fontColor=#FFB366;fillColor=#1ba1e2;strokeColor=#006EAF;" edge="1" parent="7">
                    <mxGeometry width="50" height="50" relative="1" as="geometry">
                        <mxPoint x="708.31" y="544" as="sourcePoint"/>
                        <mxPoint x="708.31" y="463" as="targetPoint"/>
                    </mxGeometry>
                </mxCell>
                <mxCell id="71" value="" style="endArrow=none;html=1;strokeWidth=2;fontSize=18;fontColor=#FFB366;fillColor=#1ba1e2;strokeColor=#006EAF;" edge="1" parent="7">
                    <mxGeometry width="50" height="50" relative="1" as="geometry">
                        <mxPoint x="729" y="584" as="sourcePoint"/>
                        <mxPoint x="729" y="463" as="targetPoint"/>
                    </mxGeometry>
                </mxCell>
                <mxCell id="72" value="" style="endArrow=classic;startArrow=classic;html=1;strokeColor=#b46504;strokeWidth=2;fillColor=#fad7ac;fontSize=18;fontColor=#85001E;" edge="1" parent="7">
                    <mxGeometry width="50" height="50" relative="1" as="geometry">
                        <mxPoint x="710" y="504" as="sourcePoint"/>
                        <mxPoint x="467" y="504" as="targetPoint"/>
                    </mxGeometry>
                </mxCell>
                <mxCell id="73" value="div.clientWidth" style="edgeLabel;html=1;align=center;verticalAlign=middle;resizable=0;points=[];fontSize=18;labelBackgroundColor=none;fontColor=#B46504;" vertex="1" connectable="0" parent="72">
                    <mxGeometry x="0.2771" y="1" relative="1" as="geometry">
                        <mxPoint x="19" y="10" as="offset"/>
                    </mxGeometry>
                </mxCell>
                <mxCell id="74" value="" style="endArrow=classic;startArrow=classic;html=1;strokeColor=#b46504;strokeWidth=2;fillColor=#fad7ac;fontSize=18;fontColor=#85001E;" edge="1" parent="7">
                    <mxGeometry width="50" height="50" relative="1" as="geometry">
                        <mxPoint x="729.0000000000002" y="561" as="sourcePoint"/>
                        <mxPoint x="466" y="561" as="targetPoint"/>
                    </mxGeometry>
                </mxCell>
                <mxCell id="75" value="div.offsetWidth" style="edgeLabel;html=1;align=center;verticalAlign=middle;resizable=0;points=[];fontSize=18;labelBackgroundColor=none;fontColor=#B46504;" vertex="1" connectable="0" parent="74">
                    <mxGeometry x="0.2771" y="1" relative="1" as="geometry">
                        <mxPoint x="23.240000000000002" y="-14" as="offset"/>
                    </mxGeometry>
                </mxCell>
                <mxCell id="76" value="" style="endArrow=none;html=1;strokeWidth=2;fontSize=18;fontColor=#FFB366;fillColor=#1ba1e2;strokeColor=#006EAF;" edge="1" parent="7">
                    <mxGeometry width="50" height="50" relative="1" as="geometry">
                        <mxPoint x="468" y="581" as="sourcePoint"/>
                        <mxPoint x="468" y="460" as="targetPoint"/>
                    </mxGeometry>
                </mxCell>
                <mxCell id="77" value="DIV element scroll area" style="text;html=1;align=center;verticalAlign=middle;resizable=0;points=[];autosize=1;fontSize=18;fontColor=#B46504;" vertex="1" parent="7">
                    <mxGeometry x="581" y="181" width="197" height="26" as="geometry"/>
                </mxCell>
                <mxCell id="78" value="DIV element client crea" style="text;html=1;align=center;verticalAlign=middle;resizable=0;points=[];autosize=1;fontSize=18;fontColor=#0E14C7;" vertex="1" parent="7">
                    <mxGeometry x="500" y="265" width="196" height="26" as="geometry"/>
                </mxCell>
                <mxCell id="79" value="" style="endArrow=none;html=1;strokeWidth=2;fontSize=18;fontColor=#FFB366;fillColor=#cdeb8b;strokeColor=#FF33FF;" edge="1" parent="7">
                    <mxGeometry width="50" height="50" relative="1" as="geometry">
                        <mxPoint x="345" y="635" as="sourcePoint"/>
                        <mxPoint x="345" y="548" as="targetPoint"/>
                    </mxGeometry>
                </mxCell>
                <mxCell id="80" value="" style="endArrow=none;html=1;strokeWidth=2;fontSize=18;fontColor=#FFB366;fillColor=#cdeb8b;strokeColor=#FF33FF;" edge="1" parent="7">
                    <mxGeometry width="50" height="50" relative="1" as="geometry">
                        <mxPoint x="777" y="638" as="sourcePoint"/>
                        <mxPoint x="777" y="551" as="targetPoint"/>
                    </mxGeometry>
                </mxCell>
                <mxCell id="81" value="" style="endArrow=classic;startArrow=classic;html=1;labelBackgroundColor=none;strokeColor=#FF33FF;strokeWidth=2;fillColor=#85001E;fontSize=18;fontColor=#0E14C7;" edge="1" parent="7">
                    <mxGeometry width="50" height="50" relative="1" as="geometry">
                        <mxPoint x="342.5" y="616" as="sourcePoint"/>
                        <mxPoint x="780.5" y="616" as="targetPoint"/>
                    </mxGeometry>
                </mxCell>
                <mxCell id="82" value="div.scrollWidth" style="edgeLabel;html=1;align=center;verticalAlign=middle;resizable=0;points=[];fontSize=18;labelBackgroundColor=none;fontColor=#FF33FF;" vertex="1" connectable="0" parent="81">
                    <mxGeometry x="-0.0616" y="-2" relative="1" as="geometry">
                        <mxPoint x="13" y="10" as="offset"/>
                    </mxGeometry>
                </mxCell>
                <mxCell id="18" value="" style="endArrow=none;html=1;fontSize=18;fontColor=#FFB366;entryX=0;entryY=0;entryDx=0;entryDy=0;fillColor=#1ba1e2;strokeColor=#006EAF;strokeWidth=2;" edge="1" parent="1">
                    <mxGeometry width="50" height="50" relative="1" as="geometry">
                        <mxPoint x="94" y="257" as="sourcePoint"/>
                        <mxPoint x="436" y="257" as="targetPoint"/>
                    </mxGeometry>
                </mxCell>
                <mxCell id="19" value="" style="endArrow=none;html=1;strokeWidth=2;fontSize=18;fontColor=#FFB366;exitX=0.004;exitY=0.032;exitDx=0;exitDy=0;exitPerimeter=0;fillColor=#1ba1e2;strokeColor=#006EAF;" edge="1" parent="1">
                    <mxGeometry width="50" height="50" relative="1" as="geometry">
                        <mxPoint x="436.97800000000007" y="257" as="sourcePoint"/>
                        <mxPoint x="436" y="88" as="targetPoint"/>
                    </mxGeometry>
                </mxCell>
            </root>
        </mxGraphModel>
    </diagram>
</mxfile>